<svg width="1026" height="1204" viewBox="0 0 1026 1204" fill="none" xmlns="http://www.w3.org/2000/svg">
<g opacity="0.08">
<path d="M1256.55 343.082C1130.47 332.267 1015.82 260.185 951.947 149.546L850.794 -25.653H936.162C1002.68 -25.6437 1064.15 9.85326 1097.42 67.4598L1256.55 343.082Z" fill="#6FDEF7"/>
<path d="M1251.38 756.489H592.191L495.474 588.934H1047.13C1113.67 588.934 1175.14 624.431 1208.41 682.056L1251.38 756.498L1251.38 756.489Z" fill="#6FDEF7"/>
<path d="M1047.1 551.703H727.449C799.853 447.923 919.603 384.683 1047.36 384.674H1251.04L1208.35 458.6C1175.09 516.216 1113.62 551.703 1047.09 551.703H1047.1Z" fill="#6FDEF7"/>
<path d="M459.11 340.335H373.161L702.758 -230.54H896.221L620.386 247.222C587.12 304.838 525.641 340.335 459.11 340.335Z" fill="#6FDEF7"/>
<path d="M813.564 -12.8925C867.242 101.703 862.134 237.034 798.258 347.683L695.335 525.952L652.656 452.035C619.39 394.419 619.39 323.435 652.656 265.819L813.564 -12.8925Z" fill="#6FDEF7"/>
<path d="M663.102 544.632H469.538L373.069 377.575H459.147C525.678 377.575 587.157 413.081 620.414 470.697L663.093 544.632H663.102Z" fill="#6FDEF7"/>
</g>
</svg>
